# xmcd CD database file
#
# Track frame offsets:
#	150
#	18791
#	48100
#	66939
#	89657
#	114305
#	138353
#	168434
#	197590
#	216848
#	234406
#
# Disc length: 3327 seconds
#
# Revision: 0
# Processed by: cddbd v1.5.1PL0 Copyright (c) Steve Scherf et al.
# Submitted via: CDex 1.51
#
DISCID=8f0cfd0b
DTITLE=Yoshiko Kishino  - Rediscovery on Grp  CD1
DYEAR=2004
DGENRE=Jazz
TTITLE0=Yoshiko Kishino - Danny Boy
TTITLE1=Yoshiko Kishino - Love Is Here to Stay
TTITLE2=Yoshiko Kishino - Air-Sur G
TTITLE3=Yoshiko Kishino - Love
TTITLE4=Yoshiko Kishino - Night and Day
TTITLE5=Yoshiko Kishino - Scarborough Fair
TTITLE6=Yoshiko Kishino - All Blues
TTITLE7=Yoshiko Kishino - Photograph
TTITLE8=Yoshiko Kishino - On Green Dolphin Street
TTITLE9=Yoshiko Kishino - J's Waltz
TTITLE10=Yoshiko Kishino - After the Rain
EXTD=YEAR: 2004
EXTT0=
EXTT1=
EXTT2=
EXTT3=
EXTT4=
EXTT5=
EXTT6=
EXTT7=
EXTT8=
EXTT9=
EXTT10=
PLAYORDER=
